Coordinates
version=1
nRows=10
nColumns=46
inDegrees=yes

Units are S.I. units (second, meters, Newtons, ...)
Angles are in degrees.

endheader
time	pelvis_tilt	pelvis_list	pelvis_rotation	pelvis_tx	pelvis_ty	pelvis_tz	bb_angle	bb_tx	bb_ty	bb_tz	hip_flexion_r	hip_adduction_r	hip_rotation_r	knee_angle_r	knee_angle_r_beta	ankle_angle_r	subtalar_angle_r	mtp_angle_r	crank_angle_r	hip_flexion_l	hip_adduction_l	hip_rotation_l	knee_angle_l	knee_angle_l_beta	ankle_angle_l	subtalar_angle_l	mtp_angle_l	crank_angle_l	lumbar_extension	lumbar_bending	lumbar_rotation	arm_flex_r	arm_add_r	arm_rot_r	elbow_flex_r	pro_sup_r	wrist_flex_r	wrist_dev_r	arm_flex_l	arm_add_l	arm_rot_l	elbow_flex_l	pro_sup_l	wrist_flex_l	wrist_dev_l
      2.50000000	    -24.68219193	      3.18390983	     -5.50749928	      0.37790905	      1.13109837	     -0.22047833	      0.00000000	      0.50000000	      0.00000000	      0.25000000	     56.55385832	      0.07882424	      8.79062633	     58.42416296	      1.01969401	     19.61110611	     -9.95811811	      0.00000000	      0.00000000	     49.88732165	     -4.57081587	      1.04069908	     81.42905115	      1.42120505	    -14.21971449	     -5.08712091	      0.00000000	      0.00000000	    -55.03664538	     -0.55132968	      5.96121755	     50.92354705	    -24.03496644	     27.36087317	     83.45957966	     58.90817960	      0.00000000	      0.00000000	     56.59712494	    -17.65466147	     27.14511583	     63.99815907	     53.11512230	      0.00000000	      0.00000000
      2.50500000	    -24.46292520	      4.00026383	     -4.55421924	      0.37846758	      1.12799739	     -0.22088836	      0.00000000	      0.50000000	      0.00000000	      0.25000000	     55.44081555	     -1.12980170	      9.26479504	     57.05483248	      0.99579468	     19.06739248	    -10.69305847	      0.00000000	      0.00000000	     51.00286743	     -3.58287083	      0.98146811	     83.82108485	      1.46295391	    -13.36177303	     -4.45179789	      0.00000000	      0.00000000	    -54.65187092	     -0.91965132	      4.89484079	     50.42034150	    -25.01449608	     27.63245245	     83.39406373	     58.94417488	      0.00000000	      0.00000000	     56.70844531	    -17.44707574	     27.64881047	     63.77789733	     53.13771356	      0.00000000	      0.00000000
      2.51000000	    -24.23495557	      4.70416426	     -3.60660726	      0.37915944	      1.12516619	     -0.22105767	      0.00000000	      0.50000000	      0.00000000	      0.25000000	     54.16894129	     -2.21395228	      9.73891896	     55.58477536	      0.97013734	     18.32979307	    -10.83557819	      0.00000000	      0.00000000	     52.04835305	     -2.73246378	      0.91848322	     86.11341306	      1.50296259	    -12.50540479	     -4.04434880	      0.00000000	      0.00000000	    -54.33973696	     -1.23712690	      3.89283467	     49.96566444	    -25.81522881	     27.86362643	     83.23681333	     58.95929004	      0.00000000	      0.00000000	     56.79192973	    -17.28362778	     28.00402050	     63.65604016	     53.15838320	      0.00000000	      0.00000000
      2.51500000	    -24.24341364	      5.27974901	     -2.50341005	      0.37925572	      1.12172996	     -0.22151836	      0.00000000	      0.50000000	      0.00000000	      0.25000000	     53.12485938	     -3.25877757	     10.05465148	     54.16523113	      0.94536162	     17.42165174	    -12.01065734	      0.00000000	      0.00000000	     53.50496170	     -1.83054303	      1.14222301	     88.51912878	      1.54495025	    -11.47071879	     -2.89127579	      0.00000000	      0.00000000	    -53.69703202	     -1.44387534	      3.18907084	     49.85317605	    -28.08482224	     29.54346594	     83.47203019	     59.21693356	      0.00000000	      0.00000000	     57.47818154	    -16.96335898	     29.74673577	     62.58402089	     53.18445417	      0.00000000	      0.00000000
      2.52000000	    -24.11478105	      6.12838437	     -1.39440968	      0.37970192	      1.11894899	     -0.22205678	      0.00000000	      0.50000000	      0.00000000	      0.25000000	     51.93198333	     -4.64757694	     10.38681964	     52.80575961	      0.92163437	     16.94178141	    -12.43399925	      0.00000000	      0.00000000	     54.67534951	     -0.71086150	      0.97302740	     90.65598319	      1.58224539	    -10.78342759	     -2.61366054	      0.00000000	      0.00000000	    -53.28273297	     -1.85230198	      1.95972109	     49.36853149	    -28.92081665	     29.83615760	     83.10506005	     59.20605963	      0.00000000	      0.00000000	     57.54496260	    -16.64790931	     30.16745103	     62.39194288	     53.20111367	      0.00000000	      0.00000000
      2.52500000	    -24.08023565	      6.88062789	     -0.21616483	      0.38015331	      1.11611271	     -0.22237569	      0.00000000	      0.50000000	      0.00000000	      0.25000000	     50.70228513	     -5.93331721	     10.69250893	     51.37964041	      0.89674389	     16.45725214	    -12.98649384	      0.00000000	      0.00000000	     56.01208408	      0.39384973	      0.83898884	     92.69988227	      1.61791816	    -10.42955813	     -2.62636120	      0.00000000	      0.00000000	    -52.75862517	     -2.20770458	      0.70727942	     48.90851876	    -29.65437686	     30.25515390	     82.74818458	     59.21230877	      0.00000000	      0.00000000	     57.61074650	    -16.41630336	     30.57478328	     62.14012232	     53.20718464	      0.00000000	      0.00000000
      2.53000000	    -24.12311052	      7.46868405	      1.01739608	      0.38022840	      1.11333720	     -0.22288001	      0.00000000	      0.50000000	      0.00000000	      0.25000000	     49.50280634	     -7.12995555	     10.80069808	     49.93421159	      0.87151640	     15.72565345	    -13.91428811	      0.00000000	      0.00000000	     57.45653745	      1.43301817	      0.88779198	     94.77631206	      1.65415870	     -9.85637610	     -2.46057569	      0.00000000	      0.00000000	    -52.06892842	     -2.44020987	     -0.31873126	     49.39628713	    -31.32170486	     32.49134266	     81.87512992	     59.34323928	      0.00000000	      0.00000000	     58.30398922	    -15.98707895	     31.00859853	     60.54772081	     53.00396180	      0.00000000	      0.00000000
      2.53500000	    -24.14690081	      8.11665499	      2.10473098	      0.38061170	      1.11088700	     -0.22311866	      0.00000000	      0.50000000	      0.00000000	      0.25000000	     48.18528245	     -8.27214921	     10.99832550	     48.41845720	      0.84506150	     15.39029962	    -14.18101220	      0.00000000	      0.00000000	     58.82992094	      2.24802357	      0.60794946	     96.73473978	      1.68833971	     -9.28585768	     -2.53935644	      0.00000000	      0.00000000	    -51.59173604	     -2.90874000	     -1.50941639	     48.91271445	    -31.83977675	     32.69215745	     81.52581624	     59.32331170	      0.00000000	      0.00000000	     58.24412712	    -15.73564304	     31.21058674	     60.56306738	     53.03001157	      0.00000000	      0.00000000
      2.54000000	    -24.34818005	      8.74596345	      3.39495393	      0.38095556	      1.10853905	     -0.22377559	      0.00000000	      0.50000000	      0.00000000	      0.25000000	     47.01446310	     -9.60689749	     10.90103620	     46.95281946	      0.81948129	     14.73016948	    -14.65845683	      0.00000000	      0.00000000	     60.39195272	      3.22736338	      0.38804212	     98.58202158	      1.72058086	     -8.70849258	     -2.44578252	      0.00000000	      0.00000000	    -50.95477788	     -3.19468995	     -2.72213340	     48.43102435	    -32.43466113	     33.16568646	     80.99719212	     59.28185049	      0.00000000	      0.00000000	     58.30432651	    -15.45314028	     31.36830058	     60.43896533	     53.01019917	      0.00000000	      0.00000000
      2.54500000	    -24.51809879	      9.09174531	      4.78142336	      0.38078791	      1.10638117	     -0.22427822	      0.00000000	      0.50000000	      0.00000000	      0.25000000	     45.74238079	    -10.70413409	     10.49333527	     45.48701527	      0.79389818	     13.63758664	    -15.93203423	      0.00000000	      0.00000000	     62.02925211	      4.03267682	      0.41932465	    100.45419617	      1.75325647	     -8.14500909	     -2.09656980	      0.00000000	      0.00000000	    -50.04728484	     -3.23780973	     -4.26575744	     50.21213863	    -33.14811275	     36.99068066	     78.58239356	     59.31697299	      0.00000000	      0.00000000	     58.66970197	    -15.13745161	     33.47959976	     58.25327200	     52.89459488	      0.00000000	      0.00000000
